<?xml version="1.0" encoding="UTF-8"?>
<svg width="228px" height="228px" viewBox="0 0 228 228" version="1.1" xmlns="http://www.w3.org/2000/svg" xmlns:xlink="http://www.w3.org/1999/xlink">
    <title>Profile Photo 2 Copy 16@2x</title>
    <g id="Profile-Photo-2-Copy-16" stroke="none" stroke-width="1" fill="none" fill-rule="evenodd">
        <g id="bag-handle" transform="translate(8.000000, 0.000000)" fill="#000000" fill-rule="nonzero">
            <path d="M105.999922,0 C137.522613,0 163.076803,25.5197684 163.076803,57 L163.076803,65.1428551 L195.692164,65.1428551 C200.025247,65.1333448 204.181908,66.8560812 207.234944,69.9267835 C210.29752,72.9714416 212.013275,77.1130292 211.999923,81.4285688 L211.999923,191.993297 C211.989773,201.647378 208.027583,210.877585 201.032929,217.541511 C194.154715,224.249246 184.921355,228.003009 175.307564,228 L36.6922808,228 C16.8172953,228 0,211.20535 0,191.357137 L0,81.4285688 C0,72.4342175 7.30119718,65.1428551 16.3076803,65.1428551 L48.923041,65.1428551 L48.923041,57 C48.923041,25.5197684 74.4772311,0 105.999922,0 Z M154.922963,89.5714257 C150.419722,89.5714257 146.769123,93.2171069 146.769123,97.7142826 L146.769123,105.857139 C146.769123,128.343018 128.51613,146.571426 105.999922,146.571426 C83.4837143,146.571426 65.2307213,128.343018 65.2307213,105.857139 L65.2307213,97.7142826 C65.2307213,93.2171069 61.5801228,89.5714257 57.0768812,89.5714257 C52.5736396,89.5714257 48.923041,93.2171069 48.923041,97.7142826 L48.923041,105.857139 C48.923041,137.337369 74.4772311,162.857138 105.999922,162.857138 C137.522613,162.857138 163.076803,137.337369 163.076803,105.857139 L163.076803,97.7142826 C163.076803,93.2171069 159.426205,89.5714257 154.922963,89.5714257 Z M105.999922,16.2857138 C83.4837143,16.2857138 65.2307213,34.5141198 65.2307213,56.9999982 L65.2307213,65.1428551 L146.769123,65.1428551 L146.769123,56.9999982 C146.769123,34.5141198 128.51613,16.2857138 105.999922,16.2857138 Z" id="Combined-Shape"></path>
        </g>
    </g>
</svg>